<?xml version="1.0" standalone="no"?>
<!DOCTYPE svg PUBLIC "-//W3C//DTD SVG 20010904//EN"
 "http://www.w3.org/TR/2001/REC-SVG-20010904/DTD/svg10.dtd">
<svg version="1.0" xmlns="http://www.w3.org/2000/svg"
 width="2596.000000pt" height="566.000000pt" viewBox="0 0 2596.000000 566.000000"
 preserveAspectRatio="xMidYMid meet">
<metadata>
Created by potrace 1.16, written by Peter Selinger 2001-2019
</metadata>
<g transform="translate(0.000000,566.000000) scale(0.100000,-0.100000)"
fill="#000000" stroke="none">
<path d="M3502 5093 c-26 -37 -227 -373 -265 -443 -17 -30 -38 -67 -49 -82
-10 -14 -18 -29 -18 -33 0 -3 -13 -26 -30 -50 -16 -24 -30 -46 -30 -50 0 -3
-25 -47 -56 -98 -48 -78 -154 -257 -214 -362 -40 -70 -99 -169 -181 -305 -47
-80 -95 -161 -106 -180 -11 -19 -48 -82 -83 -140 -35 -58 -71 -118 -80 -135
-10 -16 -52 -88 -94 -158 -42 -70 -76 -132 -76 -137 0 -6 -4 -10 -9 -10 -5 0
-11 -8 -14 -17 -7 -20 -10 -26 -163 -280 -57 -96 -104 -175 -104 -178 0 -2
-23 -41 -51 -87 -86 -138 -279 -467 -279 -474 0 -3 -13 -25 -30 -49 -16 -24
-30 -46 -30 -49 0 -4 -15 -30 -34 -59 -29 -45 -167 -276 -216 -362 -9 -16 -78
-132 -154 -257 -75 -126 -136 -231 -136 -234 0 -3 -13 -25 -30 -49 -16 -24
-30 -46 -30 -50 0 -4 -13 -26 -30 -50 -16 -24 -30 -46 -30 -48 0 -3 -25 -45
-55 -94 -30 -50 -55 -94 -55 -100 0 -10 663 -24 701 -15 9 2 25 20 36 40 11
20 39 67 61 104 23 37 61 102 85 145 24 43 63 109 86 147 24 38 52 85 63 105
36 63 54 93 123 211 37 63 75 129 85 145 46 79 97 167 138 235 82 135 189 319
240 410 14 25 60 104 102 175 124 209 182 308 200 340 10 17 32 55 50 85 41
68 54 91 122 210 30 52 70 120 88 150 30 51 43 72 90 155 9 17 39 68 67 115
86 146 160 273 182 313 22 39 49 86 80 140 45 79 135 223 146 235 10 11 30
-16 105 -140 51 -84 101 -168 111 -185 11 -18 27 -48 38 -65 10 -18 41 -71 68
-118 28 -47 75 -128 106 -180 30 -52 87 -149 127 -215 40 -66 81 -133 90 -150
9 -16 47 -79 84 -138 36 -60 66 -110 66 -112 0 -2 18 -33 40 -69 22 -36 40
-70 40 -76 0 -5 5 -10 10 -10 6 0 10 -4 10 -9 0 -8 20 -43 150 -261 81 -136
106 -180 162 -280 11 -19 25 -40 30 -47 5 -7 7 -16 4 -22 -4 -6 -284 -10 -759
-11 -842 -1 -762 7 -808 -75 -49 -89 -61 -110 -69 -120 -4 -5 -17 -26 -28 -45
-10 -19 -58 -102 -106 -184 -51 -87 -86 -158 -84 -170 l3 -21 1436 -3 c1574
-2 1490 -5 1459 54 -17 34 -133 235 -198 344 -24 41 -53 91 -65 110 -11 19
-28 49 -37 65 -24 41 -168 291 -192 335 -11 19 -24 40 -28 45 -4 6 -17 26 -28
45 -39 70 -190 327 -230 394 -23 37 -42 70 -42 71 0 2 -22 40 -50 85 -27 45
-50 83 -50 86 0 2 -18 34 -40 70 -22 36 -40 68 -40 70 0 2 -39 68 -86 146 -47
79 -94 157 -104 173 -99 169 -187 320 -252 435 -11 19 -24 40 -28 45 -4 6 -18
28 -30 50 -37 65 -49 85 -205 355 -59 102 -111 190 -115 195 -8 10 -22 34 -78
135 -14 25 -51 89 -83 143 -33 54 -59 100 -59 103 0 3 -8 18 -18 32 -11 15
-32 52 -49 82 -47 87 -74 133 -92 160 -9 14 -23 37 -31 53 -7 15 -21 27 -31
27 -10 0 -26 -12 -37 -27z"/>
<path d="M13190 3867 c0 -7 104 -112 232 -233 470 -445 903 -866 919 -897 12
-20 34 2 -481 -497 -184 -179 -402 -391 -485 -471 -82 -80 -171 -165 -197
-189 -27 -23 -48 -49 -48 -56 0 -12 50 -14 283 -14 l283 0 285 277 c644 629
664 651 750 824 46 93 47 118 6 197 -43 82 -54 106 -73 146 -9 21 -70 91 -134
155 -64 64 -266 263 -447 444 l-331 327 -281 0 c-225 0 -281 -3 -281 -13z"/>
<path d="M15635 3843 c-34 -31 -369 -355 -732 -707 -96 -93 -103 -103 -103
-138 0 -50 21 -90 62 -120 29 -20 46 -23 153 -26 101 -3 125 0 152 15 28 16
126 106 483 448 64 60 212 200 330 310 117 110 222 208 232 218 10 10 16 22
13 27 -4 6 -114 10 -278 10 l-272 -1 -40 -36z"/>
<path d="M18600 3869 c-368 -75 -613 -283 -730 -619 -7 -19 -16 -44 -20 -55
-41 -104 -78 -414 -66 -558 8 -114 25 -252 37 -317 5 -30 12 -70 16 -88 3 -18
9 -35 14 -38 5 -3 9 -14 9 -25 0 -10 4 -27 9 -37 5 -9 17 -35 26 -57 68 -162
165 -289 302 -396 67 -53 237 -125 363 -153 67 -16 149 -18 787 -17 728 1 745
2 885 42 292 85 505 301 616 624 20 59 30 103 51 215 33 173 17 589 -28 743
-6 20 -15 52 -20 70 -31 120 -125 286 -221 390 -120 132 -321 235 -536 276
-74 14 -1425 14 -1494 0z m1465 -382 c153 -53 265 -142 322 -257 100 -202 134
-452 98 -730 -19 -148 -27 -180 -66 -267 -10 -24 -19 -45 -19 -49 0 -14 -69
-104 -115 -149 -60 -59 -174 -119 -275 -144 -61 -16 -1309 -10 -1362 6 -221
65 -358 235 -415 513 -25 121 -25 468 0 594 48 238 193 410 402 479 69 22 150
25 750 23 565 -2 635 -4 680 -19z"/>
<path d="M22667 3861 c-67 -27 -108 -61 -135 -112 l-24 -44 -4 -1080 c-2 -594
-1 -1088 2 -1097 5 -16 23 -18 198 -18 136 0 195 3 204 12 9 9 12 233 12 945
0 769 2 933 13 933 8 0 427 -411 931 -912 505 -502 939 -926 964 -943 45 -30
48 -30 198 -33 140 -3 156 -2 196 18 80 41 113 83 137 180 8 33 11 336 9 1105
l-3 1060 -199 3 c-153 2 -201 -1 -208 -10 -4 -7 -8 -428 -8 -935 0 -660 -3
-923 -11 -923 -6 0 -104 93 -217 208 -114 114 -523 520 -908 903 -599 595
-710 701 -760 725 -55 27 -67 29 -199 31 -118 2 -147 0 -188 -16z"/>
<path d="M9695 3861 c-54 -14 -109 -45 -145 -81 -29 -30 -124 -176 -139 -215
-2 -5 -25 -41 -51 -80 -26 -38 -81 -127 -123 -197 -72 -120 -94 -155 -182
-293 -21 -33 -43 -69 -49 -80 -11 -20 -87 -142 -206 -330 -99 -156 -175 -278
-219 -350 -23 -38 -47 -79 -54 -90 -7 -11 -29 -45 -49 -77 -21 -31 -38 -59
-38 -63 0 -3 -15 -29 -34 -58 -18 -28 -64 -101 -101 -162 -37 -60 -88 -140
-111 -177 -24 -37 -44 -75 -44 -83 0 -13 32 -15 233 -15 231 0 234 0 255 23
12 13 22 27 22 31 0 4 23 40 50 81 28 41 50 77 50 80 0 3 18 32 39 64 37 54
128 201 173 281 11 19 33 53 48 75 15 22 62 99 105 170 43 72 91 149 106 172
16 23 29 44 29 48 0 4 14 26 30 50 17 24 30 48 30 54 0 6 5 11 10 11 6 0 10 4
10 9 0 5 30 58 66 118 37 59 93 151 124 203 32 52 80 132 109 178 28 46 51 85
51 88 0 2 24 42 54 88 45 69 59 84 86 90 94 18 113 5 197 -144 33 -58 89 -152
123 -210 35 -58 88 -145 117 -193 29 -49 53 -93 53 -98 0 -5 4 -9 9 -9 5 0 11
-8 14 -17 4 -10 18 -38 33 -63 15 -25 36 -61 46 -80 11 -19 33 -58 49 -86 16
-28 26 -54 22 -57 -3 -4 -165 -7 -359 -7 -376 0 -388 -1 -432 -50 -49 -53
-133 -182 -128 -195 4 -12 94 -15 533 -17 l528 -3 35 -24 c19 -13 51 -51 70
-84 19 -33 64 -108 99 -166 35 -58 77 -128 93 -156 17 -27 38 -61 48 -75 21
-30 64 -103 87 -148 l17 -32 233 0 233 0 0 23 c0 13 -4 27 -9 33 -5 5 -18 25
-29 44 -11 19 -51 87 -90 150 -92 151 -193 317 -212 350 -8 14 -29 48 -46 75
-57 91 -197 319 -214 350 -10 17 -36 61 -60 99 -23 38 -50 83 -59 100 -37 65
-234 392 -251 416 -10 14 -27 41 -37 60 -49 87 -197 337 -213 360 -16 23 -32
50 -82 140 -30 54 -78 99 -133 127 -47 24 -62 26 -220 29 -93 2 -183 0 -200
-5z"/>
<path d="M14918 2621 c-80 -32 -118 -87 -118 -172 l0 -56 445 -441 444 -442
276 0 c260 0 275 1 275 18 0 11 -216 233 -533 548 -492 490 -536 531 -584 547
-67 22 -146 21 -205 -2z"/>
</g>
</svg>
